HIERARCHY
ROOT Hips
{
	OFFSET 0.000000 97.167313 0.000000
	CHANNELS 6 Xposition Yposition Zposition Xrotation Yrotation Zrotation
	JOINT Spine
	{
		OFFSET 0.000000 13.784798 0.064400
		CHANNELS 3 Xrotation Yrotation Zrotation
		JOINT Spine1
		{
			OFFSET 0.000000 12.037903 0.404700
			CHANNELS 3 Xrotation Yrotation Zrotation
			JOINT Spine2
			{
				OFFSET 0.000000 17.795601 0.420200
				CHANNELS 3 Xrotation Yrotation Zrotation
				JOINT Neck
				{
					OFFSET 0.000000 39.131302 11.954600
					CHANNELS 3 Xrotation Yrotation Zrotation
					JOINT Head
					{
						OFFSET 0.000000 14.456192 15.627699
						CHANNELS 3 Xrotation Yrotation Zrotation
						JOINT HeadTop_End
						{
							OFFSET 0.000000 15.703506 7.603401
							CHANNELS 3 Xrotation Yrotation Zrotation
							End Site
							{
								OFFSET 0.000000 17.447403 0.000000
							}
						}
					}
				}
				JOINT LeftShoulder
				{
					OFFSET 17.399500 24.608795 1.168800
					CHANNELS 3 Xrotation Yrotation Zrotation
					JOINT LeftArm
					{
						OFFSET 18.980635 5.765305 1.818600
						CHANNELS 3 Xrotation Yrotation Zrotation
						JOINT LeftForeArm
						{
							OFFSET 49.290169 0.000000 0.000000
							CHANNELS 3 Xrotation Yrotation Zrotation
							JOINT LeftHand
							{
								OFFSET 31.562012 0.000000 0.000000
								CHANNELS 3 Xrotation Yrotation Zrotation
								JOINT LeftHandThumb1
								{
									OFFSET 6.133995 -4.388519 7.076070
									CHANNELS 3 Xrotation Yrotation Zrotation
									JOINT LeftHandThumb2
									{
										OFFSET 6.037666 -3.485840 3.485847
										CHANNELS 3 Xrotation Yrotation Zrotation
										JOINT LeftHandThumb3
										{
											OFFSET 6.496506 -3.750763 3.750761
											CHANNELS 3 Xrotation Yrotation Zrotation
											JOINT LeftHandThumb4
											{
												OFFSET 5.616882 -3.242905 3.242910
												CHANNELS 3 Xrotation Yrotation Zrotation
												End Site
												{
													OFFSET -1.254608 7.132141 0.375429
												}
											}
										}
									}
								}
								JOINT LeftHandPinky1
								{
									OFFSET 18.920792 -0.453171 -11.426712
									CHANNELS 3 Xrotation Yrotation Zrotation
									JOINT LeftHandPinky2
									{
										OFFSET 4.919586 0.000000 0.000000
										CHANNELS 3 Xrotation Yrotation Zrotation
										JOINT LeftHandPinky3
										{
											OFFSET 5.233047 0.000000 0.000000
											CHANNELS 3 Xrotation Yrotation Zrotation
											JOINT LeftHandPinky4
											{
												OFFSET 5.571716 0.000000 0.000000
												CHANNELS 3 Xrotation Yrotation Zrotation
												End Site
												{
													OFFSET -3.459808 4.342407 -0.466164
												}
											}
										}
									}
								}
								JOINT LeftHandRing1
								{
									OFFSET 22.726120 -0.094986 -6.500475
									CHANNELS 3 Xrotation Yrotation Zrotation
									JOINT LeftHandRing2
									{
										OFFSET 6.408615 0.000000 0.000000
										CHANNELS 3 Xrotation Yrotation Zrotation
										JOINT LeftHandRing3
										{
											OFFSET 6.150223 0.000000 0.000000
											CHANNELS 3 Xrotation Yrotation Zrotation
											JOINT LeftHandRing4
											{
												OFFSET 6.145386 0.000000 0.000000
												CHANNELS 3 Xrotation Yrotation Zrotation
												End Site
												{
													OFFSET -3.671402 4.923981 -0.202372
												}
											}
										}
									}
								}
								JOINT LeftHandMiddle1
								{
									OFFSET 23.373947 0.000000 0.000001
									CHANNELS 3 Xrotation Yrotation Zrotation
									JOINT LeftHandMiddle2
									{
										OFFSET 6.996567 0.000000 0.000000
										CHANNELS 3 Xrotation Yrotation Zrotation
										JOINT LeftHandMiddle3
										{
											OFFSET 7.015945 0.000000 0.000000
											CHANNELS 3 Xrotation Yrotation Zrotation
											JOINT LeftHandMiddle4
											{
												OFFSET 7.721573 0.000000 0.000000
												CHANNELS 3 Xrotation Yrotation Zrotation
												End Site
												{
													OFFSET -4.651108 6.158463 0.251582
												}
											}
										}
									}
								}
								JOINT LeftHandIndex1
								{
									OFFSET 21.310577 -0.490082 6.209344
									CHANNELS 3 Xrotation Yrotation Zrotation
									JOINT LeftHandIndex2
									{
										OFFSET 7.536453 0.000000 0.000000
										CHANNELS 3 Xrotation Yrotation Zrotation
										JOINT LeftHandIndex3
										{
											OFFSET 7.512344 0.000000 0.000000
											CHANNELS 3 Xrotation Yrotation Zrotation
											JOINT LeftHandIndex4
											{
												OFFSET 10.212402 0.000000 0.000001
												CHANNELS 3 Xrotation Yrotation Zrotation
												End Site
												{
													OFFSET -5.180801 8.690506 1.388433
												}
											}
										}
									}
								}
							}
						}
					}
				}
				JOINT RightShoulder
				{
					OFFSET -17.399500 24.608795 1.168800
					CHANNELS 3 Xrotation Yrotation Zrotation
					JOINT RightArm
					{
						OFFSET -18.980635 5.765305 1.818600
						CHANNELS 3 Xrotation Yrotation Zrotation
						JOINT RightForeArm
						{
							OFFSET -49.290169 0.000000 0.000000
							CHANNELS 3 Xrotation Yrotation Zrotation
							JOINT RightHand
							{
								OFFSET -31.562012 0.000000 0.000000
								CHANNELS 3 Xrotation Yrotation Zrotation
								JOINT RightHandThumb1
								{
									OFFSET -6.133995 -4.388519 7.076070
									CHANNELS 3 Xrotation Yrotation Zrotation
									JOINT RightHandThumb2
									{
										OFFSET -6.037666 -3.485840 3.485847
										CHANNELS 3 Xrotation Yrotation Zrotation
										JOINT RightHandThumb3
										{
											OFFSET -6.496506 -3.750763 3.750761
											CHANNELS 3 Xrotation Yrotation Zrotation
											JOINT RightHandThumb4
											{
												OFFSET -5.616882 -3.242905 3.242910
												CHANNELS 3 Xrotation Yrotation Zrotation
												End Site
												{
													OFFSET 1.254608 7.132141 0.375429
												}
											}
										}
									}
								}
								JOINT RightHandIndex1
								{
									OFFSET -21.310577 -0.490082 6.209344
									CHANNELS 3 Xrotation Yrotation Zrotation
									JOINT RightHandIndex2
									{
										OFFSET -7.536453 0.000000 0.000000
										CHANNELS 3 Xrotation Yrotation Zrotation
										JOINT RightHandIndex3
										{
											OFFSET -7.512344 0.000000 0.000000
											CHANNELS 3 Xrotation Yrotation Zrotation
											JOINT RightHandIndex4
											{
												OFFSET -10.212402 0.000000 0.000001
												CHANNELS 3 Xrotation Yrotation Zrotation
												End Site
												{
													OFFSET 5.180801 8.690506 1.388433
												}
											}
										}
									}
								}
								JOINT RightHandMiddle1
								{
									OFFSET -23.373947 0.000000 0.000001
									CHANNELS 3 Xrotation Yrotation Zrotation
									JOINT RightHandMiddle2
									{
										OFFSET -6.996567 0.000000 0.000000
										CHANNELS 3 Xrotation Yrotation Zrotation
										JOINT RightHandMiddle3
										{
											OFFSET -7.015945 0.000000 0.000000
											CHANNELS 3 Xrotation Yrotation Zrotation
											JOINT RightHandMiddle4
											{
												OFFSET -7.721573 0.000000 0.000000
												CHANNELS 3 Xrotation Yrotation Zrotation
												End Site
												{
													OFFSET 4.651108 6.158463 0.251582
												}
											}
										}
									}
								}
								JOINT RightHandRing1
								{
									OFFSET -22.726120 -0.094986 -6.500475
									CHANNELS 3 Xrotation Yrotation Zrotation
									JOINT RightHandRing2
									{
										OFFSET -6.408615 0.000000 0.000000
										CHANNELS 3 Xrotation Yrotation Zrotation
										JOINT RightHandRing3
										{
											OFFSET -6.150223 0.000000 0.000000
											CHANNELS 3 Xrotation Yrotation Zrotation
											JOINT RightHandRing4
											{
												OFFSET -6.145386 0.000000 0.000000
												CHANNELS 3 Xrotation Yrotation Zrotation
												End Site
												{
													OFFSET 3.671402 4.923981 -0.202372
												}
											}
										}
									}
								}
								JOINT RightHandPinky1
								{
									OFFSET -18.920792 -0.453171 -11.426712
									CHANNELS 3 Xrotation Yrotation Zrotation
									JOINT RightHandPinky2
									{
										OFFSET -4.919586 0.000000 0.000000
										CHANNELS 3 Xrotation Yrotation Zrotation
										JOINT RightHandPinky3
										{
											OFFSET -5.233047 0.000000 0.000000
											CHANNELS 3 Xrotation Yrotation Zrotation
											JOINT RightHandPinky4
											{
												OFFSET -5.571716 0.000000 0.000000
												CHANNELS 3 Xrotation Yrotation Zrotation
												End Site
												{
													OFFSET 3.459808 4.342407 -0.466164
												}
											}
										}
									}
								}
							}
						}
					}
				}
			}
		}
	}
	JOINT LeftUpLeg
	{
		OFFSET 19.899099 -7.885101 -3.429500
		CHANNELS 3 Xrotation Yrotation Zrotation
		JOINT LeftLeg
		{
			OFFSET 1.745560 -36.997807 10.304700
			CHANNELS 3 Xrotation Yrotation Zrotation
			JOINT LeftFoot
			{
				OFFSET -1.745558 -29.803308 -13.615400
				CHANNELS 3 Xrotation Yrotation Zrotation
				JOINT LeftToeBase
				{
					OFFSET 1.181900 -18.539904 15.226099
					CHANNELS 3 Xrotation Yrotation Zrotation
					JOINT LeftToe_End
					{
						OFFSET -0.863701 1.402801 16.534700
						CHANNELS 3 Xrotation Yrotation Zrotation
						End Site
						{
							OFFSET 0.000000 16.616566 0.000000
						}
					}
				}
			}
		}
	}
	JOINT RightUpLeg
	{
		OFFSET -19.899099 -7.885101 -3.429500
		CHANNELS 3 Xrotation Yrotation Zrotation
		JOINT RightLeg
		{
			OFFSET -1.745560 -36.997807 10.304700
			CHANNELS 3 Xrotation Yrotation Zrotation
			JOINT RightFoot
			{
				OFFSET 1.745558 -29.803308 -13.615400
				CHANNELS 3 Xrotation Yrotation Zrotation
				JOINT RightToeBase
				{
					OFFSET -1.181900 -18.539904 15.226099
					CHANNELS 3 Xrotation Yrotation Zrotation
					JOINT RightToe_End
					{
						OFFSET 0.863701 1.402801 16.534700
						CHANNELS 3 Xrotation Yrotation Zrotation
						End Site
						{
							OFFSET 0.000000 16.616566 0.000000
						}
					}
				}
			}
		}
	}
}
MOTION
Frames: 5
Frame Time: 0.033333
0.811528 115.826752 7.243004 -89.650987 0.349420 0.689295 1.066463 -1.170944 0.977401 -0.317153 -2.433630 0.225799 -0.303116 -2.416072 0.290712 -10.007554 0.099500 -1.808071 8.691224 -2.177259 1.506337 0.000000 -0.000000 -0.000000 0.422258 -0.102940 -3.997468 35.295262 -28.346381 -54.511460 0.000182 -80.126295 0.000180 -13.954139 -3.451755 -10.175791 6.590543 -4.958660 16.122660 7.178865 21.567325 2.147316 -3.980828 36.507501 21.976002 0.000002 -0.000002 0.000000 2.123431 10.735878 -14.817556 0.167494 1.392245 -13.719353 0.169825 1.401687 -13.814471 0.000000 -0.000001 -0.000004 2.098725 8.644303 -21.209658 0.169792 1.401605 -13.813546 0.169782 1.401613 -13.813542 -0.000000 0.000001 0.000005 1.376915 6.461956 -24.994157 0.169884 1.401968 -13.817113 0.169787 1.401625 -13.813557 -0.000002 -0.000002 0.000002 0.659518 4.932358 -26.024450 0.169788 1.401622 -13.813537 0.169789 1.401623 -13.813541 -0.000001 0.000003 0.000001 0.661437 1.786703 13.885539 39.534460 30.902487 33.646243 0.000354 101.355984 -0.000351 -34.903633 -9.309613 11.130265 -13.111095 7.817350 -0.096473 7.918275 -27.751648 -3.100769 -2.785691 -37.960699 -21.297288 0.000001 -0.000001 -0.000000 2.082853 12.897800 37.347440 0.497053 -2.095302 26.687141 0.497049 -2.095299 26.687147 -0.000001 -0.000001 0.000003 -4.321307 1.650206 38.533486 0.529965 -2.159512 27.573974 0.497630 -2.096481 26.703345 0.000001 0.000001 -0.000006 -1.394393 -1.262400 31.742000 0.254167 -1.518988 18.997017 0.249582 -1.505610 18.823346 -0.000001 -0.000001 -0.000002 0.189711 -3.422252 14.147212 0.162206 -1.219714 15.150951 0.162225 -1.219717 15.150966 -0.000000 0.000000 0.000001 -7.567418 16.342754 22.013529 7.708915 6.121296 -0.664614 29.769765 29.947856 -32.947422 -4.397005 0.000011 0.000006 0.000000 0.000002 -0.000000 -9.300302 -15.444289 -16.583612 9.888633 -5.339450 -6.611898 39.430925 -29.996377 34.238270 -9.136135 0.000008 -0.000004 -0.000001 -0.000002 0.000000 
0.841796 115.855072 7.189964 -89.463573 0.349665 0.634196 1.027135 -1.170675 0.979075 -0.396252 -2.423882 0.225800 -0.383089 -2.405713 0.290710 -9.399985 0.099499 -1.821930 8.854461 -2.175212 1.535645 -0.000000 0.000001 -0.000000 0.427149 -0.241795 -4.038149 35.556244 -28.383415 -54.294864 0.000510 -80.180294 0.000488 -14.191664 -3.409900 -10.014957 6.590543 -4.958661 16.122667 7.178870 21.567323 2.147314 -3.980833 36.507501 21.975995 0.000002 -0.000000 0.000003 2.123436 10.735881 -14.817556 0.167495 1.392245 -13.719346 0.169824 1.401685 -13.814469 0.000001 0.000002 -0.000005 2.098728 8.644303 -21.209658 0.169795 1.401607 -13.813549 0.169782 1.401610 -13.813543 -0.000004 -0.000001 -0.000000 1.376915 6.461960 -24.994157 0.169881 1.401961 -13.817112 0.169789 1.401622 -13.813553 0.000002 -0.000004 0.000004 0.659523 4.932357 -26.024448 0.169794 1.401613 -13.813538 0.169792 1.401626 -13.813539 -0.000000 0.000006 -0.000001 0.684628 1.714877 13.894480 36.899660 33.417817 31.790368 -0.000204 98.783708 0.000232 -39.665518 -11.314533 12.498732 -11.078268 8.492019 0.952971 7.976324 -28.260693 -3.132654 -2.785691 -37.960699 -21.297291 0.000001 0.000001 0.000002 2.078361 12.915533 35.775015 0.536693 -2.172308 27.751571 0.504221 -2.109488 26.882586 -0.000001 -0.000001 -0.000001 -4.092124 1.730821 36.988210 0.573586 -2.240994 28.710017 0.508226 -2.117383 26.991265 -0.000000 0.000001 -0.000006 -1.402582 -1.439428 33.171152 0.293836 -1.629633 20.440982 0.288665 -1.615656 20.257836 -0.000000 0.000000 -0.000005 0.240993 -3.608917 16.526747 0.192890 -1.327763 16.530420 0.192877 -1.327769 16.530429 0.000001 -0.000001 -0.000001 -7.674734 16.339614 22.078305 7.513610 6.191281 -0.690546 29.872010 29.911205 -32.925542 -4.397005 -0.000009 0.000013 0.000001 0.000001 -0.000000 -9.291339 -15.249868 -16.377052 9.616128 -5.544281 -6.855084 39.677887 -29.915419 34.367203 -9.136131 0.000009 -0.000005 -0.000000 0.000001 -0.000001 
0.842068 115.878624 7.152260 -89.287211 0.348569 0.602691 0.987141 -1.169458 0.945125 -0.475163 -2.416947 0.215860 -0.462659 -2.394044 0.290711 -8.658091 0.088480 -1.852789 9.098433 -2.256987 1.590829 -0.000000 0.000001 -0.000000 0.435698 -0.399010 -4.095504 35.849385 -28.399991 -54.037301 -0.000132 -80.271163 -0.000166 -14.438718 -3.346208 -9.820945 6.590540 -4.958657 16.122658 7.178869 21.567328 2.147314 -3.980827 36.507498 21.976009 0.000001 0.000001 0.000000 2.123432 10.735883 -14.817554 0.167496 1.392245 -13.719343 0.169824 1.401682 -13.814477 0.000003 0.000001 0.000001 2.098721 8.644311 -21.209663 0.169796 1.401612 -13.813539 0.169782 1.401612 -13.813541 -0.000003 0.000005 0.000004 1.376914 6.461962 -24.994160 0.169878 1.401965 -13.817110 0.169793 1.401617 -13.813555 0.000002 -0.000002 0.000004 0.659520 4.932361 -26.024448 0.169792 1.401616 -13.813538 0.169794 1.401627 -13.813544 -0.000001 0.000005 0.000002 0.736285 1.561653 13.927720 32.699534 35.374550 32.627168 -0.000001 95.758945 0.000078 -41.620950 -13.410062 15.602707 -5.825734 10.663992 3.621995 8.129087 -29.602822 -3.214629 -2.785702 -37.960696 -21.297290 0.000001 -0.000001 0.000001 2.057101 12.953858 31.631678 0.647972 -2.371649 30.558297 0.523351 -2.146790 27.397866 -0.000002 -0.000001 -0.000001 -3.483997 1.873115 32.913780 0.696293 -2.451575 31.706548 0.536629 -2.172213 27.750318 -0.000000 0.000000 -0.000008 -1.392784 -1.914357 36.938558 0.411681 -1.916182 24.248524 0.404750 -1.900735 24.040441 -0.000001 0.000002 -0.000003 0.413039 -4.089264 22.803297 0.286137 -1.608774 20.167778 0.286108 -1.608780 20.167798 -0.000000 -0.000000 0.000002 -7.792602 16.380721 22.200065 7.289434 6.201571 -0.759998 30.030501 29.869158 -32.924520 -4.396993 -0.000006 0.000001 -0.000000 -0.000001 0.000000 -9.383861 -15.084647 -16.196428 9.521579 -5.730602 -7.124609 39.815912 -29.814312 34.415756 -9.136134 0.000009 -0.000005 -0.000001 0.000001 -0.000001 
0.852635 115.908943 7.118393 -89.055340 0.347277 0.550564 0.962072 -1.168219 0.907049 -0.524339 -2.419024 0.204125 -0.511236 -2.384580 0.290712 -7.703657 0.051632 -1.915607 9.425008 -2.528193 1.667056 -0.000000 -0.000000 0.000000 0.445351 -0.521927 -4.168139 36.145443 -28.447323 -53.700634 0.000226 -80.381450 0.000219 -14.697850 -3.297783 -9.580410 6.590542 -4.958649 16.122662 7.178869 21.567323 2.147316 -3.980832 36.507498 21.976006 0.000000 -0.000001 0.000002 2.123429 10.735888 -14.817554 0.167500 1.392240 -13.719343 0.169821 1.401685 -13.814471 -0.000002 0.000002 -0.000005 2.098718 8.644312 -21.209658 0.169794 1.401607 -13.813546 0.169784 1.401611 -13.813549 -0.000001 0.000003 0.000002 1.376911 6.461963 -24.994153 0.169876 1.401968 -13.817109 0.169787 1.401616 -13.813555 -0.000001 -0.000004 0.000003 0.659515 4.932366 -26.024448 0.169794 1.401618 -13.813537 0.169789 1.401625 -13.813540 -0.000001 -0.000002 0.000001 0.779214 1.444199 13.983809 28.882964 37.332807 33.098161 0.000940 93.238912 -0.000952 -43.346235 -13.619623 16.159715 1.297985 14.647476 7.078385 8.344924 -31.500631 -3.325334 -2.785696 -37.960699 -21.297290 0.000005 -0.000002 0.000002 2.000887 12.990728 25.779987 0.821723 -2.643664 34.527781 0.550974 -2.199235 28.126405 -0.000003 -0.000001 0.000001 -2.637103 1.899937 27.155210 0.888361 -2.737909 35.947422 0.578033 -2.249088 28.823562 0.000002 -0.000001 -0.000001 -1.297828 -2.598403 42.265313 0.610227 -2.306567 29.633435 0.600473 -2.289364 29.390372 -0.000003 -0.000001 -0.000002 0.744016 -4.730137 31.686231 0.447980 -1.994747 25.311983 0.447972 -1.994750 25.312000 -0.000000 0.000001 0.000006 -7.979947 16.382870 22.305531 7.125956 6.255393 -0.773520 30.156228 29.807967 -32.943898 -4.396988 -0.000027 -0.000014 0.000000 0.000001 -0.000000 -9.523546 -14.923282 -15.995538 9.412870 -5.887235 -7.389309 39.974970 -29.737141 34.475622 -9.136133 0.000008 -0.000005 -0.000001 -0.000001 0.000000 
0.869844 115.904709 7.107162 -88.724116 0.344682 0.467504 0.971118 -1.149157 0.864537 -0.505465 -2.381457 0.188460 -0.492177 -2.350247 0.287575 -6.708420 0.014816 -2.033548 9.828623 -2.908762 1.749844 0.000000 0.000000 0.000000 0.445294 -0.557598 -4.309810 36.379490 -28.509715 -53.225069 -0.000148 -80.520041 -0.000148 -14.885789 -3.237944 -9.390589 6.590542 -4.958656 16.122658 7.178869 21.567316 2.147313 -3.980834 36.507505 21.976002 -0.000000 -0.000002 0.000004 2.123430 10.735883 -14.817554 0.167493 1.392243 -13.719345 0.169822 1.401683 -13.814469 -0.000000 0.000004 -0.000002 2.098717 8.644311 -21.209660 0.169795 1.401606 -13.813541 0.169784 1.401618 -13.813540 0.000000 -0.000002 0.000001 1.376912 6.461964 -24.994157 0.169884 1.401962 -13.817113 0.169787 1.401621 -13.813556 0.000003 -0.000003 0.000001 0.659517 4.932361 -26.024450 0.169791 1.401609 -13.813536 0.169791 1.401624 -13.813539 -0.000001 0.000002 -0.000003 0.789728 1.436398 14.064715 25.487025 38.657149 33.400930 -0.000748 92.216426 0.000883 -42.965947 -10.776251 13.587929 8.996806 20.385277 10.465501 8.592605 -33.676593 -3.444592 -2.785690 -37.960696 -21.297290 0.000002 0.000000 -0.000003 1.893922 13.016173 19.082290 1.043571 -2.939817 39.080293 0.583461 -2.258916 28.961624 -0.000002 0.000001 -0.000001 -1.731784 1.685196 20.563394 1.134223 -3.047914 40.815916 0.627253 -2.336236 30.054000 0.000001 0.000003 -0.000009 -1.066676 -3.383408 48.375170 0.881780 -2.728809 35.809282 0.868374 -2.710147 35.526727 -0.000002 0.000001 -0.000003 1.240610 -5.391709 41.883803 0.675287 -2.417259 31.211943 0.675264 -2.417263 31.211929 -0.000003 0.000002 0.000001 -8.347892 16.264644 22.408507 7.106048 6.390083 -0.673895 30.280961 29.716142 -33.016906 -4.396991 -0.000017 0.000023 -0.000001 -0.000001 0.000000 -9.811360 -14.691332 -15.763795 9.367317 -6.059395 -7.656298 40.160331 -29.693052 34.536336 -9.136134 0.000008 -0.000004 0.000001 0.000001 -0.000000 
